<?xml version="1.0" encoding="UTF-8"?>
<svg xmlns="http://www.w3.org/2000/svg" version="1.1" viewBox="0 0 1252.3 618.3">
  <defs>
    <style>
      .cls-1 {
        fill: #1b1b1e;
      }
    </style>
  </defs>
  <!-- Generator: Adobe Illustrator 28.7.0, SVG Export Plug-In . SVG Version: 1.2.0 Build 136)  -->
  <g>
    <g id="Calque_1">
      <path class="cls-1" d="M1296.2,306.3c-.9,39.7-2.4,63.5-4.1,66.1-1.1,1.5-2.1,12.6-2.4,24.4-.2,15.1-1.3,23.4-3.6,27.8-1.7,3.4-6.2,14.8-9.7,25.4-3.4,10.6-7.3,20.5-8.4,22.2-1.3,1.5-1.9,5.9-1.9,9.4.2,3.5-.9,9.6-2.1,13.6-1.5,4-2.4,8.9-2.2,10.9,1.3,9.8-3,34.2-6.9,38.5-2.4,2.4-4.1,6.4-4.1,8.9,0,10.3-7.3,15.3-39.3,27.9-26.2,10.3-32.8,12.1-47,13.5-15.5,1.3-18.7,1.2-40.8-3.7-13.3-2.9-26.6-6.2-29.6-7.4-3-1.2-8.8-3.2-12.9-4.2-4.1-1.2-10.5-3.2-14.2-4.4-3.6-1.4-8.6-2.5-10.7-2.9-2.4-.2-4.9-.8-6.2-1.4-1.1-.7-5.8-2-10.1-3-4.5-1.2-8.2-2.7-8.2-3.5,0-2-11.6.8-20.2,4.9-3.9,2-10.5,3.5-14.4,3.5s-10.7.8-14.8,1.9c-6.7,1.7-77.3,5.4-96.6,5.1-44.2-.5-66.5-1.7-71.9-3.4-9.5-3.2-31.8-5.7-51.5-6.1-9.4,0-22.1-.7-28.3-1.5-9.9-1.2-12.4-.7-24.7,3.9-7.3,2.9-15.9,5.2-18.9,5.2s-11.6,2.4-19.3,5.2c-10.7,4-18,5.4-31.1,6.1-16.1,1-19.3,1.9-53.9,15.2-33.1,12.6-37.8,14-48.3,13.8-17.2-.3-29-2.7-38.9-7.9-10.9-5.6-24.7-11.8-40.4-17.8-6.4-2.7-13.5-5.4-15.5-6.2-2.1-.8-5.2-1.5-6.9-1.5s-4.1-1-5.4-2.4c-1.3-1.2-4.7-1.9-7.5-1.5-5.6.8-24.5-4.7-51.1-14.8-2.1-.8-8.6-1.5-14.6-1.5s-14.8-1-19.7-2.2c-21.2-5.4-35.4-6.4-47.2-3.9-7.7,1.5-19.5,2.2-36.1,2-21.9-.5-26-1-36.5-5.2-16.5-6.6-18.9-6.7-54.7-6.4-38.4.3-74.3,3-93.4,6.7-7.7,1.3-20,3.2-27.3,4-7.3.7-16.1,2.5-19.5,3.9-9.2,3.7-21.7,0-25.3-7.6-3-6.7-4.5-10.3-4.9-12.1-.4-3-11.2-18-12.9-18-4.7,0-9.2-9.1-9-19v-22.2c0-24.6-1.1-40.7-3.9-52.8-1.5-6.7-2.1-15.7-1.3-19.5.9-5.6.2-8.7-3.2-13.6-2.4-3.7-4.3-7.4-4.3-8.2s-2.8-4.9-6.2-8.6c-10.1-11.1-11.6-16.2-12-47-.6-34.5-2.1-44.9-7.9-50.5-3.4-3.4-4.5-7.4-4.9-17.3-.2-7.1.2-14.1,1.3-15.7.9-1.5,1.9-7.9,2.1-14.3.2-6.4,1.3-13,2.4-14.6,1.9-3,3.2-12.1,4.7-33.3.4-5.2,1.3-10.3,2.1-11.3.6-1,.2-3.9-.9-6.4-3.4-6.7-2.1-53.7,1.5-59.1,1.5-2.4,2.8-9.4,2.8-15.8s1.5-14.3,3.4-18c3.2-6.2,3.9-8.7,6.2-31.5,1.3-11.4,7.9-24.9,15.5-31.5,1.7-1.7,2.8-4,2.1-5.4-.6-1.3-.6-2.9.2-3.4.5-.5,1-3.2,1.3-6.8h1295.8c2.4,10.5,4.1,23.6,3.8,31.2-.2,13.1,2.1,29.1,5.4,35.5,1.5,3,3.6,11.6,4.3,18.9.9,7.4,2.1,14.1,3,15.1,2.4,3,2.8,20.7,1.9,78.1-.2,21.7,0,39.6.6,39.9.6.3,1.5,13,1.7,28.1.4,19.2,1.5,30.3,4.1,36.7,1.9,5.6,3.2,14.6,3,22.7Z"/>
    </g>
  </g>
</svg>