<?xml version="1.0" encoding="UTF-8"?>
<svg xmlns="http://www.w3.org/2000/svg" version="1.1" viewBox="0 0 255.3 396.6">
  <defs>
    <style>
      .cls-1 {
        fill: #0c0404;
      }
    </style>
  </defs>
  <!-- Generator: Adobe Illustrator 28.7.0, SVG Export Plug-In . SVG Version: 1.2.0 Build 136)  -->
  <g>
    <g id="Calque_1">
      <path class="cls-1" d="M100.8,6.2c9.4,15.4,13.5,30.8,12.6,47.4-.7,13.5-3.3,22.6-10.7,37.5-7.2,14.4-13.6,23.5-35.4,50.1C28.4,188.7,13.7,214.1,4.9,249.2c-5.7,22.4-6.3,40.7-2.1,61.9,6.7,33.7,28.9,63.4,58.5,78.3,5.8,2.9,17.3,7.2,19.3,7.2s-1.4-3.5-4.3-7.8c-20-29-24.7-60.8-13.6-91.4,3.3-9,4.9-11.9,5.6-10.2.2.5,2.1,3.9,4.2,7.4,7.4,12.7,20.1,23.6,32.3,27.9,3,1.1,5.5,1.8,5.7,1.6s-.9-2.3-2.6-4.7c-9.8-14.4-13.5-32.3-9.7-47.3,2.6-10.3,8.9-21.5,23.5-41.6,7.8-10.7,15.7-22.2,17.7-25.6,3.7-6.3,5.3-6.7,5.3-1.5s4,22.3,7.2,32.1c4.6,14.4,9.7,26.9,19.3,46.7,18.7,38.6,22,51.6,17.9,71.2-2.9,14.2-9.3,26.7-19.1,37.3l-5.5,5.9h6.6c24.9,0,51.6-15.8,67.3-39.7,20.3-31,22.4-72.5,5.8-116.8-4.6-12.3-10.1-23.3-24.4-48.9-16.8-30.1-20.6-41.7-19.8-59.1.6-14.1,5.7-26.5,15.1-37.2l2.8-3.3h-3.9c-2.2,0-7.4.9-11.5,1.9-17.1,4.4-31.2,14.6-43.1,31.1-1.5,2.1-1.7,2.2-1.3.5,2.9-11.9,3.4-35.3,1.1-49.4-5.2-32-24.2-59-50-71.2-13.2-6.2-13.3-6.2-8.4,1.7Z"/>
    </g>
  </g>
</svg>