<svg width="1440" height="1411" viewBox="0 0 1440 1411" fill="none" xmlns="http://www.w3.org/2000/svg">
<path d="M2181.7 1.12158C2177.5 3.02722 2168.57 4.29761 2162.8 4.29761C2143.9 4.29761 2095.61 17.6371 2083.54 25.8949C2073.57 33.1998 2067.79 34.1527 2033.67 34.4703C1998.5 35.1055 1951.26 42.0928 1938.14 49.3977C1930.79 53.209 1896.67 52.5738 1900.87 48.7626C1902.97 46.5393 1899.82 46.5393 1891.95 48.4449C1879.87 51.621 1845.23 54.7971 1806.39 57.0204C1794.84 57.338 1771.74 58.6083 1754.42 59.5612C1728.18 60.8316 1719.78 59.8788 1698.26 52.8915L1673.06 44.6337L1659.94 52.2562C1652.06 56.7027 1646.29 63.3725 1646.29 68.4542C1646.29 84.3345 1637.37 92.5923 1617.42 96.0859C1606.92 97.674 1594.85 101.803 1589.6 105.297C1582.78 109.743 1568.08 112.284 1530.81 115.142C1502.99 117.365 1477.27 120.859 1472.55 123.4C1468.35 125.941 1462.57 128.164 1460.47 128.164C1458.37 128.164 1446.83 131.023 1434.75 134.199C1422.16 137.692 1405.36 141.504 1396.96 142.774C1388.04 144.044 1377.01 147.22 1371.76 150.079C1362.84 154.843 1361.27 154.525 1353.92 148.808C1349.72 145.315 1344.99 144.044 1343.94 145.632C1342.89 147.538 1328.72 148.809 1312.45 148.173C1289.35 147.856 1279.91 145.95 1268.88 139.916C1259.43 134.516 1246.31 131.34 1226.36 130.07C1210.62 128.799 1196.44 128.164 1194.87 128.482C1193.3 128.799 1187 127.529 1180.7 125.623C1173.87 123.4 1168.1 123.082 1166 124.67C1158.65 132.293 1097.24 123.4 1061.54 109.743C1046.85 104.026 1028.47 99.5796 1019.55 99.5796C1011.15 99.5796 995.93 97.9916 986.482 95.7683C971.259 92.5922 967.585 92.5923 963.386 96.4036C959.187 100.532 958.137 100.532 953.938 96.7212C949.738 92.9099 947.639 92.9098 940.29 97.3563C935.566 100.532 923.493 102.756 914.045 102.756C899.872 102.756 896.198 101.485 894.623 95.4507C893.573 91.3218 886.749 86.5577 876.251 83.6992C866.278 80.8408 858.929 76.3943 858.929 73.2183C858.929 67.5013 858.404 67.5014 844.757 73.5359C836.358 76.712 821.661 81.7937 811.688 84.9697C801.714 87.8282 789.641 91.3218 785.442 92.9098C774.944 96.4035 725.078 105.932 717.204 105.932C714.055 105.932 707.756 107.837 704.081 110.378C693.583 116.413 663.139 114.189 631.119 104.661C615.897 100.215 601.724 96.4036 600.15 96.4036C598.05 96.4036 582.303 89.7337 564.981 81.7936C532.436 66.2309 520.889 65.278 513.015 77.9823C506.191 88.7809 435.853 112.919 344.52 136.104C325.623 140.868 300.427 148.173 288.354 152.302L266.308 159.925L234.814 153.573C217.492 150.079 197.545 147.22 190.197 147.22C182.848 147.22 176.024 145.95 174.449 144.362C172.875 142.774 166.576 142.139 160.802 143.092C155.028 144.044 144.53 142.456 137.181 139.598C125.633 134.834 83.6404 130.07 22.7511 126.258C-0.344843 124.988 -3.49428 125.623 -19.2415 135.469C-32.8891 144.362 -40.2378 146.585 -58.6096 146.903C-71.2074 146.903 -88.5293 144.997 -96.9279 142.139C-117.399 136.104 -162.541 131.34 -224.48 129.752C-298.492 127.529 -307.941 125.306 -345.734 101.168C-370.93 85.2873 -381.953 80.2056 -391.401 80.8408C-403.999 81.7936 -433.394 73.8534 -449.141 65.2781C-457.015 61.4668 -463.313 61.1493 -489.559 64.3253C-511.08 66.8662 -527.352 67.1837 -543.624 64.9604C-557.797 63.0548 -573.544 62.7373 -583.517 64.3253C-592.441 65.9133 -600.839 66.5485 -602.414 65.2781C-603.989 64.3253 -605.563 64.9605 -605.563 66.8661C-605.563 70.3598 -689.549 70.0421 -698.997 66.5485C-702.146 65.278 -717.369 63.6901 -732.591 62.7373C-747.813 62.1021 -765.135 61.1491 -771.434 60.5139C-778.783 60.1963 -791.381 66.2309 -811.852 80.5232C-852.27 108.155 -868.017 128.799 -868.017 152.937C-868.017 163.736 -873.266 181.522 -879.565 193.591C-885.864 205.66 -891.113 224.399 -891.638 235.197C-891.638 245.996 -893.738 255.842 -895.312 257.112C-897.412 258.065 -897.412 260.924 -895.837 263.464C-894.263 266.005 -896.887 270.452 -901.086 273.628C-919.458 286.014 -935.73 311.423 -938.88 333.02C-944.654 375.897 -946.229 380.661 -954.102 392.413C-958.826 399.4 -962.501 413.375 -962.501 426.396C-962.501 438.465 -965.65 451.805 -969.324 456.251C-978.248 466.415 -981.397 555.027 -972.999 567.731C-970.374 572.495 -969.324 577.895 -970.899 579.8C-972.999 581.706 -975.098 591.234 -976.148 601.08C-979.823 641.098 -982.972 658.249 -987.696 663.966C-990.321 667.142 -992.945 679.529 -993.47 691.598C-993.995 703.667 -996.62 715.736 -998.719 718.594C-1001.34 721.453 -1002.39 734.792 -1001.87 748.132C-1000.82 766.87 -998.194 774.493 -989.796 780.845C-975.623 791.326 -971.949 811.018 -970.374 876.127C-969.324 934.249 -965.65 943.777 -940.979 964.739C-932.581 971.727 -925.757 979.031 -925.757 980.937C-925.757 982.525 -921.033 989.512 -915.259 996.5C-906.86 1005.71 -905.286 1011.74 -907.385 1022.23C-909.485 1029.53 -907.91 1046.36 -904.236 1059.07C-897.412 1081.94 -894.788 1112.43 -894.788 1158.8C-894.788 1170.87 -894.788 1189.92 -894.788 1200.72C-895.313 1219.46 -884.289 1236.61 -872.741 1236.61C-868.542 1236.61 -842.297 1264.88 -841.247 1270.59C-840.197 1274.09 -836.523 1280.76 -829.174 1293.46C-820.251 1307.75 -789.806 1314.74 -767.235 1307.75C-758.836 1305.21 -737.315 1301.72 -719.468 1300.45C-701.622 1298.86 -671.702 1295.37 -652.805 1292.83C-606.088 1285.84 -518.429 1280.76 -424.47 1280.12C-336.811 1279.49 -331.037 1279.8 -290.619 1292.19C-264.898 1300.13 -254.925 1301.08 -201.384 1302.04C-160.967 1302.35 -132.097 1301.08 -113.2 1298.23C-84.33 1293.46 -49.6861 1295.37 2.27972 1305.53C14.3526 1307.75 36.3988 1309.66 50.5713 1309.66C65.2687 1309.66 81.0159 1310.93 86.265 1312.52C151.354 1331.57 197.545 1342.06 211.193 1340.47C218.017 1339.83 226.415 1341.1 229.565 1343.33C232.714 1345.87 239.013 1347.77 242.688 1347.77C246.887 1347.77 254.235 1349.04 259.484 1350.63C264.209 1352.22 281.531 1357.3 297.278 1362.38C335.596 1373.82 369.19 1385.57 395.961 1396.05C420.106 1405.89 448.976 1410.34 490.969 1410.98C516.689 1411.29 528.237 1408.75 609.073 1384.93C693.583 1359.84 701.457 1358.25 740.825 1356.35C772.844 1355.08 790.691 1352.54 816.937 1344.91C835.833 1339.51 856.83 1335.07 864.178 1335.07C871.527 1335.07 892.523 1330.62 910.37 1325.22C940.29 1316.65 946.589 1315.69 970.734 1317.92C985.957 1319.51 1016.93 1320.78 1040.02 1320.78C1088.31 1321.41 1142.9 1326.18 1166 1332.21C1179.12 1335.39 1233.71 1337.61 1341.84 1338.56C1389.09 1339.2 1561.78 1332.21 1578.05 1329.03C1588.03 1327.13 1604.3 1325.54 1614.27 1325.54C1623.72 1325.54 1639.99 1322.68 1649.44 1318.87C1670.44 1311.25 1698.78 1305.85 1698.78 1309.66C1698.78 1311.25 1707.71 1314.11 1718.73 1316.33C1729.23 1318.24 1740.77 1320.78 1743.4 1322.05C1746.55 1323 1752.85 1324.27 1758.62 1324.59C1763.87 1325.22 1775.94 1327.45 1784.87 1329.99C1793.79 1332.21 1809.54 1336.02 1819.51 1338.24C1829.48 1340.15 1843.66 1343.96 1851 1346.18C1858.35 1348.41 1890.9 1354.76 1923.44 1360.16C1977.51 1369.37 1985.38 1369.69 2023.17 1367.15C2057.82 1364.61 2074.09 1361.11 2138.13 1341.74C2216.34 1317.92 2234.19 1308.39 2234.19 1289.02C2234.19 1284.25 2238.39 1276.63 2244.16 1272.18C2253.61 1263.92 2264.11 1217.87 2260.96 1199.45C2260.43 1195.64 2262.53 1186.43 2266.21 1178.81C2269.36 1171.18 2271.98 1159.75 2271.46 1153.08C2271.46 1146.41 2273.03 1138.15 2276.18 1135.29C2278.8 1132.12 2288.25 1113.38 2296.65 1093.37C2305.05 1073.36 2316.07 1051.76 2320.27 1045.41C2326.05 1037.15 2328.67 1021.59 2329.2 993.006C2329.72 970.774 2332.35 949.812 2334.97 946.953C2339.17 941.872 2342.84 897.089 2344.94 822.134C2345.47 806.889 2342.32 789.738 2337.59 779.257C2331.3 767.188 2328.67 746.226 2327.62 710.019C2327.1 681.434 2325 657.614 2323.42 656.979C2321.85 656.343 2321.32 622.677 2321.85 581.706C2323.95 473.402 2322.9 440.054 2317.12 434.337C2315.02 432.431 2311.87 419.727 2309.77 405.752C2308.2 392.095 2302.95 375.897 2299.28 370.18C2291.4 358.111 2285.63 327.938 2286.15 303.165C2287.2 282.203 2277.75 239.326 2268.31 221.858C2263.58 212.647 2262.53 195.497 2264.11 159.925C2266.21 118.636 2265.16 104.979 2256.23 77.3472C2240.49 29.3886 2238.91 20.8132 2244.69 18.59C2250.98 16.3667 2252.03 10.3322 2246.26 11.285C2243.64 11.6026 2234.71 9.69694 2225.79 6.52087C2216.87 3.66242 2207.94 2.39203 2206.37 3.34485C2204.27 4.29767 2200.07 3.66247 2195.87 1.75684C2191.67 -0.466408 2186.42 -0.46645 2181.7 1.12158Z" fill="#1B1B1E"/>
</svg>
