<svg width="280" height="63" viewBox="0 0 280 63" fill="none" xmlns="http://www.w3.org/2000/svg">
<path d="M39.8086 0.190522C39.6752 0.402896 39.5418 0.933832 39.5418 1.41167C39.5418 2.47354 37.4958 4.33181 35.2275 5.34058C34.2935 5.76533 32.9147 6.40245 32.1141 6.77411C31.0022 7.30504 30.4685 7.30504 29.6679 6.8272C28.0223 5.76533 22.9075 5.87152 22.2848 7.03957C21.84 7.83597 18.9045 9.37568 17.8371 9.37568C17.3479 9.37568 16.8586 9.69424 16.7252 10.119C16.5028 10.703 12.3665 12.0834 9.96472 12.3489C2.00338 13.1453 1.9589 13.1453 1.06937 15.4283C0.224308 17.499 0.0019243 20.3129 0.0464011 27.9584C0.0908778 36.2409 0.0464011 38.577 0.0019243 44.0457C-0.0425525 49.4081 0.669075 51.2664 3.69349 53.7087C5.82838 55.4607 6.3621 55.4076 8.40803 53.2839C12.0551 49.5674 19.6606 47.3375 25.754 48.24C27.8444 48.5055 30.1572 49.0895 30.8688 49.4612C33.4484 50.7885 37.5848 51.4787 42.6551 51.4256C46.0354 51.3725 48.7929 51.6911 50.7944 52.2751C53.4185 53.0184 54.1301 53.0184 56.354 52.3813C60.9351 51.1071 63.7816 51.1071 65.9609 52.3813C67.6955 53.337 68.1848 53.4432 69.7859 52.9123C71.7429 52.2751 75.0342 52.2751 75.7903 52.9654C76.0572 53.1777 76.9022 53.4963 77.7028 53.7087C78.8592 53.9741 79.3929 53.8148 80.4604 52.753C81.172 52.0097 82.5063 51.1071 83.3958 50.7885C85.3083 49.9921 89.4891 50.5231 90.2897 51.638C90.5566 52.0628 91.0458 52.3813 91.3127 52.3813C91.624 52.3813 93.0028 53.1246 94.4261 54.0272C96.9168 55.62 97.0947 55.6731 99.4964 55.0891C101.187 54.6643 105.456 54.5582 112.484 54.7174C126.85 55.0891 133.477 55.6731 133.744 56.5226C133.921 57.2659 136.679 58.7525 137.88 58.7525C138.369 58.7525 139.525 57.903 140.46 56.8943C141.438 55.8324 142.817 54.7705 143.573 54.5051C144.863 54.0803 145.219 54.2927 148.11 57.2659C149.8 59.018 151.356 60.3453 151.49 60.133C151.668 59.9737 152.068 60.133 152.468 60.5046C153.447 61.5134 157.005 63 158.339 63C159.54 63 160.385 62.0974 161.408 59.6551C162.475 57.0535 164.255 55.7262 167.902 54.7705C170.704 54.0272 171.682 53.9741 173.105 54.5051C174.039 54.8236 176.263 55.2484 177.998 55.4076C180.177 55.62 182.134 56.2571 184.091 57.319C186.938 58.8587 187.027 58.8587 192.764 58.5402C195.966 58.3809 199.703 57.9561 201.126 57.6907C203.038 57.2659 204.373 57.2659 206.241 57.7438C209.532 58.5402 218.516 58.434 222.875 57.4783C224.787 57.1066 227.589 55.9917 229.191 55.0891C230.792 54.1865 232.348 53.4432 232.704 53.4432C233.016 53.4432 234.35 52.4875 235.64 51.3195C238.397 48.9303 240.443 48.3993 245.202 48.8241C246.937 49.0364 249.205 48.9833 250.273 48.7179C251.296 48.4524 252.141 48.5055 252.141 48.7179C252.141 48.9833 252.407 49.1957 252.719 49.1957C253.342 49.1957 259.613 52.222 260.324 52.8592C262.148 54.452 265.528 55.3015 270.376 55.3015C273.178 55.3015 275.713 55.1422 275.98 54.9298C276.203 54.7174 276.38 53.7618 276.336 52.8061C276.247 51.8504 276.914 48.24 277.759 44.789C278.604 41.2848 279.182 38.3116 279.094 38.0992C279.005 37.9399 278.649 34.4358 278.382 30.3476C277.982 24.8789 277.67 22.5959 277.092 21.5872C275.535 18.9856 274.201 13.9948 274.246 11.0747C274.29 9.58805 274.157 8.31382 273.979 8.31382C273.845 8.31382 273.756 7.35813 273.845 6.19008C273.979 4.438 273.89 4.06634 273.267 4.06634C271.844 4.06634 268.953 5.34058 268.73 6.0308C268.597 6.40245 268.063 6.72101 267.485 6.72101C266.951 6.72101 266.151 7.19885 265.662 7.83598C264.994 8.73856 264.505 8.89784 263.171 8.63237C262.148 8.42 260.903 8.57928 260.013 9.00403C258.367 9.85352 254.053 9.42877 253.519 8.42C253.342 8.04834 252.63 7.67669 251.874 7.46432C250.762 7.19885 250.451 7.35813 250.006 8.52619C249.694 9.42877 248.938 10.0128 247.737 10.4375C246.759 10.7561 245.825 11.234 245.692 11.4463C245.38 12.1365 235.506 11.7118 234.394 11.0216C233.905 10.703 232.927 10.4375 232.171 10.4375C231.459 10.4375 230.792 10.1721 230.703 9.80043C230.569 9.42878 229.413 9.11021 227.678 9.00403C226.122 8.95093 224.743 8.63238 224.565 8.31382C224.387 7.94216 222.475 7.88907 218.739 8.10144C215.714 8.31381 212.823 8.47309 212.334 8.42C209.665 8.31381 205.618 7.6236 205.218 7.25195C204.551 6.61483 201.837 6.98648 201.437 7.78288C201.037 8.57928 197.078 9.42878 196.723 8.73856C196.589 8.52619 196.278 8.42 196.055 8.57928C195.833 8.79165 194.232 9.00403 192.542 9.11021C190.229 9.2164 189.428 9.11021 189.428 8.57928C189.428 7.41123 185.426 6.50864 184.225 7.41122C183.958 7.6236 183.246 7.57051 182.668 7.30504C182.134 7.09267 180.444 6.93338 178.976 6.98648C176.975 7.09266 175.73 6.8272 174.084 5.92461C171.638 4.59727 166.434 4.22562 164.655 5.2344C163.943 5.65915 163.498 5.65915 163.098 5.2344C162.342 4.54419 156.649 4.49109 156.249 5.18131C155.893 5.92461 154.069 6.72101 151.89 6.98648C150.912 7.14576 149.622 7.51741 149.088 7.88906C147.932 8.57928 145.13 7.72979 143.084 6.08389C142.239 5.39368 141.616 5.2344 140.86 5.55296C140.326 5.81842 138.992 6.19008 137.969 6.40245C136.101 6.72101 136.056 6.72101 136.056 5.18131V3.69469L132.632 4.70347C130.719 5.28749 128.273 5.87152 127.161 6.0308C126.005 6.19008 124.804 6.72101 124.359 7.30504C123.692 8.15454 123.114 8.31381 121.335 8.10144C120.089 7.99525 118.844 7.6236 118.532 7.30504C118.221 6.98648 117.02 6.66792 115.819 6.50864C114.485 6.40245 113.551 6.0308 113.284 5.44677C113.062 4.96893 112.617 4.59728 112.261 4.59728C111.95 4.59728 111.283 4.01325 110.794 3.26994C110.304 2.57972 109.059 1.62404 107.991 1.1993C105.812 0.296709 105.367 0.615274 105.367 3.16376C105.367 4.06634 105.056 4.75656 104.611 4.96893C104.166 5.1813 103.722 5.49987 103.588 5.71224C103.144 6.45555 98.0287 8.73856 97.8953 8.26072C97.8063 7.99525 97.406 7.78288 96.9612 7.78288C96.5609 7.78288 95.9828 7.51741 95.6714 7.14576C95.2711 6.66792 95.1377 6.66792 95.1377 7.14576C95.1377 7.88907 93.67 7.99526 92.558 7.30504C87.7545 4.22562 84.8191 3.69469 82.6842 5.55296C81.4389 6.66792 80.9496 6.77411 76.324 6.61483C73.6109 6.50864 70.0528 6.72101 68.4961 7.03957C66.6281 7.46432 65.2493 7.51741 64.5377 7.19885C63.915 6.93339 63.0255 6.88029 62.4918 7.03957C59.7787 8.10144 49.4601 8.3669 48.7929 7.35813C48.5261 7.03957 47.9479 6.72101 47.5031 6.72101C45.9909 6.72101 43.6781 4.86274 42.3883 2.63282C41.0984 0.349807 40.2979 -0.393505 39.8086 0.190522Z" fill="#FAA916"/>
</svg>
