<svg width="210" height="63" viewBox="0 0 210 63" fill="none" xmlns="http://www.w3.org/2000/svg">
<path d="M29.9525 0.190522C29.8521 0.402896 29.7517 0.933832 29.7517 1.41167C29.7517 2.47354 28.2123 4.33181 26.5056 5.34058C25.8028 5.76533 24.7654 6.40245 24.163 6.77411C23.3264 7.30504 22.9249 7.30504 22.3225 6.8272C21.0843 5.76533 17.2358 5.87152 16.7673 7.03957C16.4327 7.83597 14.224 9.37568 13.4208 9.37568C13.0527 9.37568 12.6846 9.69424 12.5842 10.119C12.4169 10.703 9.30467 12.0834 7.49757 12.3489C1.50736 13.1453 1.4739 13.1453 0.804604 15.4283C0.168772 17.499 0.00144787 20.3129 0.0349127 27.9584C0.0683775 36.2409 0.0349127 38.577 0.00144787 44.0457C-0.032017 49.4081 0.50342 51.2664 2.77903 53.7087C4.38534 55.4607 4.78692 55.4076 6.3263 53.2839C9.07041 49.5674 14.7929 47.3375 19.3776 48.24C20.9504 48.5055 22.6906 49.0895 23.226 49.4612C25.167 50.7885 28.2792 51.4787 32.0942 51.4256C34.6375 51.3725 36.7124 51.6911 38.2183 52.2751C40.1927 53.0184 40.7281 53.0184 42.4014 52.3813C45.8483 51.1071 47.99 51.1071 49.6298 52.3813C50.9349 53.337 51.303 53.4432 52.5077 52.9123C53.9802 52.2751 56.4566 52.2751 57.0255 52.9654C57.2263 53.1777 57.8621 53.4963 58.4645 53.7087C59.3346 53.9741 59.7362 53.8148 60.5393 52.753C61.0747 52.0097 62.0787 51.1071 62.748 50.7885C64.187 49.9921 67.3327 50.5231 67.935 51.638C68.1358 52.0628 68.5039 52.3813 68.7047 52.3813C68.939 52.3813 69.9764 53.1246 71.0473 54.0272C72.9213 55.62 73.0552 55.6731 74.8623 55.0891C76.1339 54.6643 79.3465 54.5582 84.634 54.7174C95.4431 55.0891 100.429 55.6731 100.63 56.5226C100.764 57.2659 102.839 58.7525 103.742 58.7525C104.111 58.7525 104.981 57.903 105.683 56.8943C106.42 55.8324 107.457 54.7705 108.026 54.5051C108.996 54.0803 109.264 54.2927 111.439 57.2659C112.711 59.018 113.882 60.3453 113.983 60.133C114.116 59.9737 114.418 60.133 114.719 60.5046C115.455 61.5134 118.132 63 119.136 63C120.04 63 120.676 62.0974 121.445 59.6551C122.248 57.0535 123.587 55.7262 126.331 54.7705C128.439 54.0272 129.176 53.9741 130.247 54.5051C130.949 54.8236 132.623 55.2484 133.928 55.4076C135.567 55.62 137.04 56.2571 138.512 57.319C140.654 58.8587 140.721 58.8587 145.038 58.5402C147.447 58.3809 150.259 57.9561 151.329 57.6907C152.768 57.2659 153.772 57.2659 155.178 57.7438C157.654 58.5402 164.414 58.434 167.694 57.4783C169.133 57.1066 171.241 55.9917 172.446 55.0891C173.65 54.1865 174.822 53.4432 175.089 53.4432C175.324 53.4432 176.328 52.4875 177.298 51.3195C179.373 48.9303 180.912 48.3993 184.493 48.8241C185.798 49.0364 187.505 48.9833 188.308 48.7179C189.078 48.4524 189.714 48.5055 189.714 48.7179C189.714 48.9833 189.914 49.1957 190.149 49.1957C190.617 49.1957 195.336 52.222 195.871 52.8592C197.243 54.452 199.786 55.3015 203.434 55.3015C205.542 55.3015 207.45 55.1422 207.651 54.9298C207.818 54.7174 207.952 53.7618 207.918 52.8061C207.851 51.8504 208.353 48.24 208.989 44.789C209.625 41.2848 210.06 38.3116 209.993 38.0992C209.926 37.9399 209.659 34.4358 209.458 30.3476C209.157 24.8789 208.922 22.5959 208.487 21.5872C207.316 18.9856 206.312 13.9948 206.346 11.0747C206.379 9.58805 206.279 8.31382 206.145 8.31382C206.044 8.31382 205.977 7.35813 206.044 6.19008C206.145 4.438 206.078 4.06634 205.609 4.06634C204.538 4.06634 202.363 5.34058 202.196 6.0308C202.096 6.40245 201.694 6.72101 201.259 6.72101C200.857 6.72101 200.255 7.19885 199.887 7.83598C199.385 8.73856 199.017 8.89784 198.013 8.63237C197.243 8.42 196.306 8.57928 195.637 9.00403C194.399 9.85352 191.153 9.42877 190.751 8.42C190.617 8.04834 190.082 7.67669 189.513 7.46432C188.676 7.19885 188.442 7.35813 188.107 8.52619C187.873 9.42877 187.304 10.0128 186.4 10.4375C185.664 10.7561 184.962 11.234 184.861 11.4463C184.627 12.1365 177.198 11.7118 176.361 11.0216C175.993 10.703 175.257 10.4375 174.688 10.4375C174.152 10.4375 173.65 10.1721 173.583 9.80043C173.483 9.42878 172.613 9.11021 171.308 9.00403C170.137 8.95093 169.099 8.63238 168.965 8.31382C168.831 7.94216 167.392 7.88907 164.581 8.10144C162.306 8.31381 160.131 8.47309 159.763 8.42C157.755 8.31381 154.709 7.6236 154.408 7.25195C153.906 6.61483 151.865 6.98648 151.564 7.78288C151.262 8.57928 148.284 9.42878 148.016 8.73856C147.916 8.52619 147.682 8.42 147.514 8.57928C147.347 8.79165 146.142 9.00403 144.871 9.11021C143.13 9.2164 142.528 9.11021 142.528 8.57928C142.528 7.41123 139.516 6.50864 138.613 7.41122C138.412 7.6236 137.877 7.57051 137.441 7.30504C137.04 7.09267 135.768 6.93338 134.664 6.98648C133.158 7.09266 132.221 6.8272 130.983 5.92461C129.142 4.59727 125.227 4.22562 123.888 5.2344C123.353 5.65915 123.018 5.65915 122.717 5.2344C122.148 4.54419 117.865 4.49109 117.563 5.18131C117.296 5.92461 115.924 6.72101 114.284 6.98648C113.548 7.14576 112.577 7.51741 112.176 7.88906C111.305 8.57928 109.197 7.72979 107.658 6.08389C107.022 5.39368 106.553 5.2344 105.985 5.55296C105.583 5.81842 104.579 6.19008 103.809 6.40245C102.404 6.72101 102.37 6.72101 102.37 5.18131V3.69469L99.7935 4.70347C98.3546 5.28749 96.514 5.87152 95.6774 6.0308C94.8073 6.19008 93.9037 6.72101 93.5691 7.30504C93.0671 8.15454 92.6321 8.31381 91.2935 8.10144C90.3565 7.99525 89.4194 7.6236 89.1852 7.30504C88.9509 6.98648 88.0474 6.66792 87.1438 6.50864C86.1399 6.40245 85.4371 6.0308 85.2363 5.44677C85.069 4.96893 84.7344 4.59728 84.4667 4.59728C84.2324 4.59728 83.7304 4.01325 83.3623 3.26994C82.9942 2.57972 82.0572 1.62404 81.254 1.1993C79.6143 0.296709 79.2796 0.615274 79.2796 3.16376C79.2796 4.06634 79.0454 4.75656 78.7107 4.96893C78.3761 5.1813 78.0414 5.49987 77.941 5.71224C77.6064 6.45555 73.7579 8.73856 73.6575 8.26072C73.5906 7.99525 73.2894 7.78288 72.9548 7.78288C72.6536 7.78288 72.2185 7.51741 71.9843 7.14576C71.6831 6.66792 71.5827 6.66792 71.5827 7.14576C71.5827 7.88907 70.4784 7.99526 69.6417 7.30504C66.0275 4.22562 63.8189 3.69469 62.2125 5.55296C61.2755 6.66792 60.9074 6.77411 57.4271 6.61483C55.3857 6.50864 52.7085 6.72101 51.5373 7.03957C50.1317 7.46432 49.0943 7.51741 48.5589 7.19885C48.0904 6.93339 47.4211 6.88029 47.0195 7.03957C44.9782 8.10144 37.2143 8.3669 36.7124 7.35813C36.5116 7.03957 36.0765 6.72101 35.7419 6.72101C34.6041 6.72101 32.8639 4.86274 31.8934 2.63282C30.9229 0.349807 30.3206 -0.393505 29.9525 0.190522Z" fill="#FAA916"/>
</svg>
