<svg width="216" height="75" viewBox="0 0 216 75" fill="none" xmlns="http://www.w3.org/2000/svg">
<path d="M30.8082 0.22482C30.705 0.475491 30.6017 1.10217 30.6017 1.66618C30.6017 2.91953 29.0184 5.11289 27.2629 6.30358C26.54 6.80492 25.473 7.55694 24.8534 7.99561C23.9929 8.62228 23.5798 8.62229 22.9603 8.05828C21.6867 6.80492 17.7283 6.93026 17.2464 8.30894C16.9022 9.24896 14.6304 11.0663 13.8043 11.0663C13.4257 11.0663 13.047 11.4423 12.9438 11.9437C12.7717 12.633 9.57052 14.2624 7.71178 14.5757C1.55043 15.5157 1.51601 15.5157 0.827592 18.2104C0.173594 20.6545 0.00148923 23.9758 0.0359102 33C0.0703312 42.7761 0.0359102 45.5335 0.00148923 51.9883C-0.0329317 58.3177 0.517804 60.5111 2.85843 63.3938C4.51063 65.4618 4.92369 65.3991 6.50705 62.8924C9.32957 58.5057 15.2156 55.8737 19.9312 56.939C21.549 57.2523 23.3389 57.9417 23.8896 58.3804C25.8861 59.947 29.0872 60.7617 33.0112 60.6991C35.6272 60.6364 37.7613 61.0124 39.3102 61.7017C41.3411 62.5791 41.8918 62.5791 43.6128 61.8271C47.1582 60.3231 49.3611 60.3231 51.0478 61.8271C52.3902 62.9551 52.7688 63.0804 54.008 62.4538C55.5225 61.7017 58.0696 61.7017 58.6548 62.5164C58.8613 62.7671 59.5153 63.1431 60.1349 63.3938C61.0298 63.7071 61.4429 63.5191 62.269 62.2657C62.8197 61.3884 63.8524 60.3231 64.5408 59.947C66.0209 59.007 69.2565 59.6337 69.876 60.9497C70.0826 61.4511 70.4612 61.8271 70.6677 61.8271C70.9087 61.8271 71.9757 62.7044 73.0772 63.7698C75.0048 65.6498 75.1424 65.7125 77.0012 65.0231C78.3092 64.5218 81.6136 64.3964 87.0521 64.5844C98.1701 65.0231 103.299 65.7125 103.505 66.7151C103.643 67.5925 105.777 69.3472 106.706 69.3472C107.085 69.3472 107.98 68.3445 108.703 67.1538C109.46 65.9005 110.527 64.6471 111.112 64.3338C112.111 63.8324 112.386 64.0831 114.623 67.5925C115.931 69.6605 117.136 71.2272 117.239 70.9765C117.377 70.7885 117.687 70.9765 117.997 71.4152C118.754 72.6059 121.507 74.3606 122.54 74.3606C123.469 74.3606 124.123 73.2952 124.915 70.4125C125.741 67.3418 127.118 65.7751 129.941 64.6471C132.109 63.7698 132.866 63.7071 133.968 64.3338C134.691 64.7098 136.412 65.2111 137.754 65.3991C139.441 65.6498 140.955 66.4018 142.47 67.6552C144.673 69.4725 144.742 69.4725 149.182 69.0965C151.66 68.9085 154.552 68.4072 155.653 68.0938C157.133 67.5925 158.166 67.5925 159.611 68.1565C162.159 69.0965 169.112 68.9712 172.485 67.8432C173.965 67.4045 176.134 66.0885 177.373 65.0231C178.612 63.9578 179.817 63.0804 180.092 63.0804C180.333 63.0804 181.366 61.9524 182.364 60.5737C184.498 57.7537 186.081 57.127 189.764 57.6283C191.107 57.879 192.862 57.8163 193.688 57.503C194.48 57.1897 195.134 57.2523 195.134 57.503C195.134 57.8163 195.34 58.067 195.581 58.067C196.063 58.067 200.917 61.6391 201.467 62.3911C202.879 64.2711 205.495 65.2738 209.247 65.2738C211.415 65.2738 213.377 65.0858 213.584 64.8351C213.756 64.5845 213.893 63.4564 213.859 62.3284C213.79 61.2004 214.306 56.939 214.96 52.8656C215.614 48.7295 216.062 45.2202 215.993 44.9695C215.924 44.7815 215.649 40.6454 215.442 35.82C215.132 29.3653 214.892 26.6705 214.444 25.4799C213.239 22.4092 212.207 16.5184 212.241 13.0717C212.276 11.317 212.172 9.81297 212.035 9.81297C211.931 9.81297 211.862 8.68495 211.931 7.30626C212.035 5.23823 211.966 4.79956 211.484 4.79956C210.382 4.79956 208.145 6.30358 207.973 7.11826C207.87 7.55693 207.457 7.93294 207.009 7.93294C206.596 7.93294 205.977 8.49695 205.598 9.24896C205.082 10.3143 204.703 10.5023 203.67 10.189C202.879 9.9383 201.915 10.1263 201.226 10.6276C199.953 11.6303 196.614 11.129 196.201 9.9383C196.063 9.49963 195.513 9.06095 194.927 8.81028C194.067 8.49694 193.826 8.68495 193.482 10.0636C193.241 11.129 192.656 11.8183 191.726 12.3197C190.969 12.6957 190.246 13.2597 190.143 13.5104C189.902 14.325 182.26 13.8237 181.4 13.009C181.021 12.633 180.264 12.3197 179.679 12.3197C179.128 12.3197 178.612 12.0063 178.543 11.5677C178.44 11.129 177.545 10.753 176.202 10.6276C174.998 10.565 173.931 10.189 173.793 9.81297C173.655 9.3743 172.175 9.31163 169.284 9.5623C166.943 9.81297 164.706 10.001 164.327 9.9383C162.262 9.81296 159.13 8.99829 158.82 8.55962C158.303 7.80761 156.204 8.24628 155.894 9.18629C155.584 10.1263 152.521 11.129 152.245 10.3143C152.142 10.0636 151.901 9.9383 151.729 10.1263C151.557 10.377 150.318 10.6276 149.01 10.753C147.22 10.8783 146.6 10.753 146.6 10.1263C146.6 8.74762 143.502 7.68227 142.573 8.74761C142.367 8.99828 141.816 8.93562 141.368 8.62228C140.955 8.37161 139.647 8.18361 138.511 8.24627C136.962 8.37161 135.999 8.05827 134.725 6.99292C132.832 5.42623 128.805 4.98756 127.428 6.17825C126.877 6.67959 126.533 6.67959 126.223 6.17825C125.638 5.36357 121.232 5.3009 120.922 6.11558C120.647 6.99293 119.236 7.93294 117.549 8.24627C116.792 8.43428 115.794 8.87295 115.381 9.31162C114.486 10.1263 112.317 9.12362 110.734 7.18093C110.08 6.36625 109.598 6.17825 109.013 6.55425C108.6 6.86759 107.567 7.30626 106.775 7.55693C105.33 7.93294 105.295 7.93294 105.295 6.11558V4.36089L102.645 5.55157C101.165 6.24092 99.2715 6.93026 98.411 7.11826C97.5161 7.30626 96.5867 7.93294 96.2425 8.62228C95.7262 9.62497 95.2787 9.81297 93.9019 9.5623C92.9381 9.43696 91.9743 8.99829 91.7333 8.62228C91.4924 8.24628 90.563 7.87027 89.6337 7.68227C88.601 7.55693 87.8782 7.11826 87.6717 6.42891C87.4996 5.86491 87.1554 5.42624 86.88 5.42624C86.639 5.42624 86.1227 4.73689 85.7441 3.85954C85.3655 3.04486 84.4017 1.91685 83.5756 1.4155C81.889 0.350155 81.5447 0.726167 81.5447 3.73421C81.5447 4.79956 81.3038 5.61424 80.9596 5.86491C80.6154 6.11558 80.2712 6.49159 80.1679 6.74226C79.8237 7.6196 75.8653 10.3143 75.762 9.7503C75.6932 9.43696 75.3834 9.18629 75.0392 9.18629C74.7294 9.18629 74.2819 8.87295 74.041 8.43428C73.7312 7.87027 73.6279 7.87027 73.6279 8.43428C73.6279 9.31163 72.492 9.43696 71.6315 8.62228C67.914 4.98756 65.6423 4.36089 63.99 6.55425C63.0263 7.87027 62.6476 7.99561 59.0679 7.8076C56.9682 7.68227 54.2145 7.93294 53.0098 8.30894C51.5641 8.81028 50.497 8.87295 49.9463 8.49695C49.4644 8.18361 48.776 8.12094 48.3629 8.30894C46.2633 9.5623 38.2776 9.87563 37.7613 8.68495C37.5548 8.30894 37.1073 7.93294 36.7631 7.93294C35.5928 7.93294 33.8029 5.73957 32.8047 3.10754C31.8065 0.412828 31.1869 -0.464523 30.8082 0.22482Z" fill="#96031A"/>
</svg>
