<svg width="261" height="63" viewBox="0 0 261 63" fill="none" xmlns="http://www.w3.org/2000/svg">
<path d="M37.2266 0.190522C37.1019 0.402896 36.9771 0.933832 36.9771 1.41167C36.9771 2.47354 35.0639 4.33181 32.9427 5.34058C32.0692 5.76533 30.7799 6.40245 30.0312 6.77411C28.9914 7.30504 28.4923 7.30504 27.7437 6.8272C26.2048 5.76533 21.4217 5.87152 20.8394 7.03957C20.4235 7.83597 17.6784 9.37568 16.6802 9.37568C16.2227 9.37568 15.7652 9.69424 15.6404 10.119C15.4324 10.703 11.5644 12.0834 9.31841 12.3489C1.87344 13.1453 1.83185 13.1453 1.00001 15.4283C0.209759 17.499 0.00179949 20.3129 0.0433915 27.9584C0.0849835 36.2409 0.0433915 38.577 0.00179949 44.0457C-0.0397925 49.4081 0.625679 51.2664 3.45393 53.7087C5.45035 55.4607 5.94945 55.4076 7.86269 53.2839C11.2732 49.5674 18.3855 47.3375 24.0836 48.24C26.0384 48.5055 28.2012 49.0895 28.8666 49.4612C31.279 50.7885 35.147 51.4787 39.8885 51.4256C43.0495 51.3725 45.6282 51.6911 47.4999 52.2751C49.9538 53.0184 50.6193 53.0184 52.6989 52.3813C56.9828 51.1071 59.6447 51.1071 61.6827 52.3813C63.3048 53.337 63.7623 53.4432 65.2596 52.9123C67.0897 52.2751 70.1675 52.2751 70.8746 52.9654C71.1241 53.1777 71.9144 53.4963 72.663 53.7087C73.7444 53.9741 74.2435 53.8148 75.2417 52.753C75.9072 52.0097 77.1549 51.1071 77.9868 50.7885C79.7752 49.9921 83.6849 50.5231 84.4335 51.638C84.6831 52.0628 85.1406 52.3813 85.3902 52.3813C85.6813 52.3813 86.9707 53.1246 88.3016 54.0272C90.6308 55.62 90.7971 55.6731 93.0431 55.0891C94.6236 54.6643 98.6164 54.5582 105.188 54.7174C118.622 55.0891 124.819 55.6731 125.069 56.5226C125.235 57.2659 127.814 58.7525 128.937 58.7525C129.394 58.7525 130.476 57.903 131.349 56.8943C132.264 55.8324 133.554 54.7705 134.261 54.5051C135.467 54.0803 135.8 54.2927 138.503 57.2659C140.084 59.018 141.539 60.3453 141.664 60.133C141.83 59.9737 142.205 60.133 142.579 60.5046C143.494 61.5134 146.822 63 148.069 63C149.192 63 149.983 62.0974 150.939 59.6551C151.937 57.0535 153.601 55.7262 157.012 54.7705C159.632 54.0272 160.547 53.9741 161.878 54.5051C162.751 54.8236 164.831 55.2484 166.453 55.4076C168.491 55.62 170.321 56.2571 172.151 57.319C174.813 58.8587 174.896 58.8587 180.262 58.5402C183.256 58.3809 186.75 57.9561 188.081 57.6907C189.869 57.2659 191.117 57.2659 192.864 57.7438C195.942 58.5402 204.343 58.434 208.419 57.4783C210.208 57.1066 212.828 55.9917 214.325 55.0891C215.823 54.1865 217.278 53.4432 217.611 53.4432C217.902 53.4432 219.15 52.4875 220.356 51.3195C222.935 48.9303 224.848 48.3993 229.298 48.8241C230.921 49.0364 233.042 48.9833 234.04 48.7179C234.997 48.4524 235.787 48.5055 235.787 48.7179C235.787 48.9833 236.036 49.1957 236.328 49.1957C236.91 49.1957 242.774 52.222 243.44 52.8592C245.145 54.452 248.306 55.3015 252.84 55.3015C255.46 55.3015 257.831 55.1422 258.08 54.9298C258.288 54.7174 258.454 53.7618 258.413 52.8061C258.33 51.8504 258.954 48.24 259.744 44.789C260.534 41.2848 261.075 38.3116 260.992 38.0992C260.908 37.9399 260.576 34.4358 260.326 30.3476C259.952 24.8789 259.661 22.5959 259.12 21.5872C257.664 18.9856 256.416 13.9948 256.458 11.0747C256.5 9.58805 256.375 8.31382 256.208 8.31382C256.084 8.31382 256.001 7.35813 256.084 6.19008C256.208 4.438 256.125 4.06634 255.543 4.06634C254.212 4.06634 251.509 5.34058 251.301 6.0308C251.176 6.40245 250.677 6.72101 250.136 6.72101C249.637 6.72101 248.888 7.19885 248.431 7.83598C247.807 8.73856 247.349 8.89784 246.102 8.63237C245.145 8.42 243.98 8.57928 243.149 9.00403C241.61 9.85352 237.575 9.42877 237.076 8.42C236.91 8.04834 236.244 7.67669 235.537 7.46432C234.497 7.19885 234.206 7.35813 233.79 8.52619C233.499 9.42877 232.792 10.0128 231.669 10.4375C230.754 10.7561 229.881 11.234 229.756 11.4463C229.465 12.1365 220.231 11.7118 219.192 11.0216C218.734 10.703 217.819 10.4375 217.112 10.4375C216.447 10.4375 215.823 10.1721 215.739 9.80043C215.615 9.42878 214.533 9.11021 212.911 9.00403C211.456 8.95093 210.166 8.63238 210 8.31382C209.833 7.94216 208.045 7.88907 204.551 8.10144C201.723 8.31381 199.02 8.47309 198.562 8.42C196.066 8.31381 192.282 7.6236 191.907 7.25195C191.283 6.61483 188.746 6.98648 188.372 7.78288C187.998 8.57928 184.296 9.42878 183.963 8.73856C183.838 8.52619 183.547 8.42 183.339 8.57928C183.131 8.79165 181.634 9.00403 180.054 9.11021C177.891 9.2164 177.142 9.11021 177.142 8.57928C177.142 7.41123 173.399 6.50864 172.276 7.41122C172.026 7.6236 171.361 7.57051 170.82 7.30504C170.321 7.09267 168.741 6.93338 167.368 6.98648C165.496 7.09266 164.332 6.8272 162.793 5.92461C160.505 4.59727 155.639 4.22562 153.975 5.2344C153.31 5.65915 152.894 5.65915 152.52 5.2344C151.813 4.54419 146.489 4.49109 146.114 5.18131C145.782 5.92461 144.076 6.72101 142.038 6.98648C141.123 7.14576 139.917 7.51741 139.418 7.88906C138.337 8.57928 135.716 7.72979 133.803 6.08389C133.013 5.39368 132.431 5.2344 131.724 5.55296C131.225 5.81842 129.977 6.19008 129.02 6.40245C127.273 6.72101 127.232 6.72101 127.232 5.18131V3.69469L124.029 4.70347C122.241 5.28749 119.953 5.87152 118.913 6.0308C117.832 6.19008 116.709 6.72101 116.293 7.30504C115.669 8.15454 115.128 8.31381 113.465 8.10144C112.3 7.99525 111.136 7.6236 110.844 7.30504C110.553 6.98648 109.43 6.66792 108.307 6.50864C107.06 6.40245 106.186 6.0308 105.937 5.44677C105.729 4.96893 105.313 4.59728 104.98 4.59728C104.689 4.59728 104.065 4.01325 103.607 3.26994C103.15 2.57972 101.985 1.62404 100.987 1.1993C98.9492 0.296709 98.5332 0.615274 98.5332 3.16376C98.5332 4.06634 98.2421 4.75656 97.8262 4.96893C97.4102 5.1813 96.9943 5.49987 96.8696 5.71224C96.4536 6.45555 91.6706 8.73856 91.5458 8.26072C91.4626 7.99525 91.0883 7.78288 90.6723 7.78288C90.298 7.78288 89.7573 7.51741 89.4662 7.14576C89.0918 6.66792 88.9671 6.66792 88.9671 7.14576C88.9671 7.88907 87.5945 7.99526 86.5547 7.30504C82.0628 4.22562 79.3177 3.69469 77.3213 5.55296C76.1567 6.66792 75.6992 6.77411 71.3737 6.61483C68.8365 6.50864 65.5092 6.72101 64.0535 7.03957C62.3066 7.46432 61.0173 7.51741 60.3518 7.19885C59.7695 6.93339 58.9377 6.88029 58.4385 7.03957C55.9014 8.10144 46.2521 8.3669 45.6282 7.35813C45.3787 7.03957 44.838 6.72101 44.422 6.72101C43.0079 6.72101 40.8451 4.86274 39.639 2.63282C38.4328 0.349807 37.6841 -0.393505 37.2266 0.190522Z" fill="#FAA916"/>
</svg>
