<svg width="1440" height="1346" viewBox="0 0 1440 1346" fill="none" xmlns="http://www.w3.org/2000/svg">
<path d="M1395.98 1.07001C1393.98 2.88786 1389.71 4.09967 1386.96 4.09967C1377.93 4.09967 1354.86 16.8246 1349.09 24.702C1344.32 31.6704 1341.57 32.5794 1325.27 32.8824C1308.46 33.4883 1285.9 40.1537 1279.63 47.1222C1276.12 50.7579 1259.82 50.1519 1261.82 46.5162C1262.82 44.3954 1261.32 44.3954 1257.56 46.2133C1251.79 49.2431 1235.24 52.2727 1216.68 54.3935C1211.17 54.6965 1200.13 55.9084 1191.86 56.8174C1179.32 58.0293 1175.31 57.1203 1165.02 50.4549L1152.99 42.5775L1146.72 49.8489C1142.96 54.0906 1140.2 60.453 1140.2 65.3006C1140.2 80.4494 1135.93 88.3268 1126.41 91.6595C1121.39 93.1744 1115.62 97.1131 1113.11 100.446C1109.85 104.687 1102.83 107.111 1085.03 109.838C1071.74 111.959 1059.45 115.291 1057.19 117.715C1055.19 120.139 1052.43 122.26 1051.43 122.26C1050.42 122.26 1044.91 124.987 1039.14 128.016C1033.12 131.349 1025.09 134.985 1021.08 136.197C1016.82 137.409 1011.55 140.439 1009.05 143.165C1004.78 147.71 1004.03 147.407 1000.52 141.953C998.513 138.621 996.256 137.409 995.754 138.924C995.253 140.741 988.482 141.953 980.708 141.347C969.674 141.044 965.16 139.227 959.894 133.47C955.38 128.32 949.111 125.29 939.582 124.078C932.059 122.866 925.288 122.26 924.536 122.563C923.783 122.866 920.774 121.654 917.765 119.836C914.505 117.715 911.746 117.412 910.743 118.927C907.232 126.199 877.892 117.715 860.84 104.688C853.818 99.234 845.041 94.9923 840.778 94.9923C836.766 94.9923 829.494 93.4774 824.98 91.3566C817.707 88.3268 815.952 88.3268 813.946 91.9625C811.94 95.9012 811.438 95.9012 809.432 92.2655C807.426 88.6298 806.423 88.6298 802.912 92.8714C800.655 95.9012 794.887 98.022 790.374 98.022C783.603 98.022 781.847 96.8101 781.095 91.0535C780.593 87.1149 777.334 82.5703 772.318 79.8435C767.553 77.1167 764.043 72.875 764.043 69.8453C764.043 64.3917 763.792 64.3918 757.272 70.1483C753.26 73.1781 746.238 78.0257 741.473 81.0554C736.709 83.7822 730.941 87.115 728.935 88.6298C723.919 91.9626 700.096 101.052 696.335 101.052C694.83 101.052 691.821 102.87 690.065 105.293C685.05 111.05 670.505 108.929 655.208 99.8399C647.936 95.5982 641.165 91.9625 640.413 91.9625C639.41 91.9625 631.887 85.6 623.611 78.0256C608.064 63.1798 602.547 62.271 598.785 74.39C595.525 84.6912 561.922 107.717 518.288 129.834C509.26 134.379 497.223 141.347 491.456 145.286L480.923 152.558L465.877 146.498C457.602 143.165 448.072 140.439 444.562 140.439C441.051 140.439 437.791 139.227 437.038 137.712C436.286 136.197 433.277 135.591 430.518 136.5C427.76 137.409 422.745 135.894 419.234 133.167C413.717 128.622 393.655 124.078 364.566 120.442C353.532 119.23 352.027 119.836 344.504 129.228C337.984 137.712 334.474 139.833 325.697 140.135C319.678 140.135 311.403 138.318 307.39 135.591C297.61 129.834 276.044 125.29 246.453 123.775C211.095 121.654 206.581 119.533 188.525 96.5072C176.488 81.3584 171.222 76.5108 166.708 77.1168C160.69 78.0257 146.647 70.4513 139.124 62.271C135.362 58.6353 132.353 58.3322 119.814 61.362C109.533 63.7858 101.759 64.0888 93.985 61.9679C87.2142 60.1501 79.6911 59.8471 74.9265 61.362C70.6634 62.8769 66.651 63.4829 65.8987 62.271C65.1464 61.3621 64.3941 61.968 64.3941 63.7858C64.3941 67.1185 24.2709 66.8156 19.757 63.4829C18.2524 62.271 10.9801 60.7561 3.70775 59.8472C-3.56458 59.2412 -11.84 58.3323 -14.8492 57.7264C-18.36 57.4234 -24.3785 63.1798 -34.1585 76.8137C-53.4678 103.173 -60.9909 122.866 -60.9909 145.892C-60.9909 156.193 -63.4986 173.16 -66.5079 184.673C-69.5171 196.186 -72.0248 214.062 -72.2756 224.363C-72.2756 234.664 -73.2787 244.056 -74.031 245.268C-75.0341 246.177 -75.0341 248.904 -74.2817 251.327C-73.5294 253.751 -74.7833 257.993 -76.7894 261.023C-85.5664 272.839 -93.3403 297.077 -94.8449 317.679C-97.6034 358.581 -98.3557 363.125 -102.117 374.335C-104.374 381.001 -106.13 394.332 -106.13 406.754C-106.13 418.267 -107.634 430.992 -109.39 435.233C-113.653 444.929 -115.157 529.459 -111.145 541.578C-109.891 546.122 -109.39 551.273 -110.142 553.091C-111.145 554.909 -112.148 563.998 -112.65 573.39C-114.405 611.565 -115.91 627.926 -118.167 633.379C-119.42 636.409 -120.674 648.225 -120.925 659.738C-121.176 671.251 -122.43 682.764 -123.433 685.491C-124.687 688.218 -125.188 700.943 -124.937 713.668C-124.436 731.543 -123.182 738.815 -119.17 744.874C-112.399 754.872 -110.643 773.657 -109.891 835.767C-109.39 891.211 -107.634 900.301 -95.848 920.297C-91.8357 926.962 -88.5756 933.931 -88.5756 935.749C-88.5756 937.264 -86.3187 943.929 -83.5602 950.594C-79.5479 959.381 -78.7956 965.137 -79.7987 975.135C-80.8018 982.104 -80.0495 998.162 -78.2941 1010.28C-75.0341 1032.09 -73.7802 1061.18 -73.7802 1105.41C-73.7802 1116.93 -73.7802 1135.11 -73.7802 1145.41C-74.031 1163.28 -68.7648 1179.64 -63.2479 1179.64C-61.2417 1179.64 -48.7032 1206.61 -48.2017 1212.06C-47.7001 1215.39 -45.9447 1221.76 -42.434 1233.88C-38.1709 1247.51 -23.6262 1254.18 -12.8431 1247.51C-8.83075 1245.09 1.45082 1241.75 9.97701 1240.54C18.5032 1239.03 32.7971 1235.69 41.8248 1233.27C64.1433 1226.6 106.022 1221.76 150.91 1221.15C192.788 1220.55 195.547 1220.85 214.856 1232.66C227.144 1240.24 231.909 1241.15 257.487 1242.06C276.796 1242.36 290.589 1241.15 299.616 1238.42C313.409 1233.88 329.96 1235.69 354.786 1245.39C360.554 1247.51 371.086 1249.33 377.857 1249.33C384.878 1249.33 392.401 1250.54 394.909 1252.05C426.005 1270.23 448.072 1280.23 454.592 1278.72C457.852 1278.11 461.865 1279.32 463.369 1281.44C464.874 1283.87 467.883 1285.69 469.639 1285.69C471.645 1285.69 475.156 1286.9 477.663 1288.41C479.92 1289.93 488.196 1294.77 495.719 1299.62C514.025 1310.53 530.074 1321.74 542.863 1331.74C554.399 1341.13 568.191 1345.37 588.253 1345.98C600.541 1346.28 606.058 1343.86 644.676 1321.13C685.05 1297.2 688.812 1295.68 707.619 1293.87C722.916 1292.65 731.443 1290.23 743.981 1282.96C753.009 1277.81 763.04 1273.57 766.55 1273.57C770.061 1273.57 780.092 1269.32 788.618 1264.17C802.912 1255.99 805.921 1255.08 817.457 1257.21C824.729 1258.72 839.524 1259.93 850.558 1259.93C873.629 1260.54 899.709 1265.08 910.743 1270.84C917.012 1273.87 943.092 1275.99 994.751 1276.9C1017.32 1277.5 1099.82 1270.84 1107.6 1267.81C1112.36 1265.99 1120.14 1264.48 1124.9 1264.48C1129.41 1264.48 1137.19 1261.75 1141.7 1258.11C1151.73 1250.84 1165.27 1245.69 1165.27 1249.33C1165.27 1250.84 1169.54 1253.57 1174.8 1255.69C1179.82 1257.51 1185.34 1259.93 1186.59 1261.14C1188.09 1262.05 1191.1 1263.26 1193.86 1263.57C1196.37 1264.17 1202.14 1266.29 1206.4 1268.72C1210.66 1270.84 1218.19 1274.47 1222.95 1276.6C1227.72 1278.41 1234.49 1282.05 1238 1284.17C1241.51 1286.29 1257.06 1292.35 1272.6 1297.5C1298.43 1306.29 1302.2 1306.59 1320.25 1304.17C1336.8 1301.74 1344.58 1298.41 1375.17 1279.93C1412.53 1257.21 1421.06 1248.12 1421.06 1229.63C1421.06 1225.09 1423.07 1217.82 1425.82 1213.58C1430.34 1205.7 1435.35 1161.77 1433.85 1144.2C1433.6 1140.56 1434.6 1131.77 1436.36 1124.5C1437.86 1117.23 1439.12 1106.32 1438.86 1099.96C1438.86 1093.6 1439.62 1085.72 1441.12 1082.99C1442.38 1079.96 1446.89 1062.09 1450.9 1043C1454.91 1023.91 1460.18 1003.31 1462.19 997.253C1464.95 989.375 1466.2 974.529 1466.45 947.262C1466.7 926.053 1467.95 906.057 1469.21 903.33C1471.21 898.483 1472.97 855.763 1473.97 784.261C1474.22 769.718 1472.72 753.358 1470.46 743.359C1467.45 731.846 1466.2 711.85 1465.7 677.311C1465.45 650.043 1464.44 627.32 1463.69 626.714C1462.94 626.108 1462.69 593.993 1462.94 554.909C1463.94 451.594 1463.44 419.782 1460.68 414.328C1459.68 412.51 1458.17 400.391 1457.17 387.06C1456.42 374.032 1453.91 358.581 1452.16 353.127C1448.39 341.614 1445.64 312.831 1445.89 289.199C1446.39 269.203 1441.87 228.301 1437.36 211.638C1435.1 202.851 1434.6 186.491 1435.35 152.558C1436.36 113.171 1435.86 100.143 1431.59 73.7841C1424.07 28.0348 1423.32 19.8544 1426.08 17.7335C1429.08 15.6127 1429.59 9.85628 1426.83 10.7652C1425.57 11.0682 1421.31 9.25034 1417.05 6.22059C1412.78 3.49381 1408.52 2.28187 1407.77 3.1908C1406.77 4.09972 1404.76 3.49368 1402.75 1.67583C1400.75 -0.444995 1398.24 -0.444865 1395.98 1.07001Z" fill="#283A47"/>
</svg>
