<svg width="183" height="63" viewBox="0 0 183 63" fill="none" xmlns="http://www.w3.org/2000/svg">
<path d="M26.1014 0.190522C26.0139 0.402896 25.9265 0.933832 25.9265 1.41167C25.9265 2.47354 24.585 4.33181 23.0977 5.34058C22.4853 5.76533 21.5813 6.40245 21.0564 6.77411C20.3273 7.30504 19.9774 7.30504 19.4525 6.8272C18.3734 5.76533 15.0198 5.87152 14.6115 7.03957C14.3199 7.83597 12.3952 9.37568 11.6953 9.37568C11.3745 9.37568 11.0537 9.69424 10.9662 10.119C10.8204 10.703 8.10835 12.0834 6.53359 12.3489C1.31356 13.1453 1.2844 13.1453 0.701155 15.4283C0.147073 17.499 0.00126171 20.3129 0.0304239 27.9584C0.0595861 36.2409 0.0304239 38.577 0.00126171 44.0457C-0.0279005 49.4081 0.438695 51.2664 2.42172 53.7087C3.82151 55.4607 4.17146 55.4076 5.51292 53.2839C7.90422 49.5674 12.891 47.3375 16.8862 48.24C18.2568 48.5055 19.7732 49.0895 20.2398 49.4612C21.9312 50.7885 24.6433 51.4787 27.9678 51.4256C30.1841 51.3725 31.9922 51.6911 33.3045 52.2751C35.0251 53.0184 35.4917 53.0184 36.9498 52.3813C39.9535 51.1071 41.8199 51.1071 43.2488 52.3813C44.3861 53.337 44.7069 53.4432 45.7568 52.9123C47.0399 52.2751 49.1979 52.2751 49.6937 52.9654C49.8686 53.1777 50.4227 53.4963 50.9476 53.7087C51.7058 53.9741 52.0558 53.8148 52.7557 52.753C53.2223 52.0097 54.0971 51.1071 54.6804 50.7885C55.9344 49.9921 58.6756 50.5231 59.2005 51.638C59.3755 52.0628 59.6963 52.3813 59.8713 52.3813C60.0754 52.3813 60.9794 53.1246 61.9126 54.0272C63.5457 55.62 63.6623 55.6731 65.2371 55.0891C66.3453 54.6643 69.1448 54.5582 73.7525 54.7174C83.1719 55.0891 87.517 55.6731 87.692 56.5226C87.8086 57.2659 89.6167 58.7525 90.4041 58.7525C90.7249 58.7525 91.4831 57.903 92.0955 56.8943C92.7371 55.8324 93.6411 54.7705 94.1368 54.5051C94.9825 54.0803 95.2158 54.2927 97.1114 57.2659C98.2195 59.018 99.2402 60.3453 99.3277 60.133C99.4444 59.9737 99.7068 60.133 99.9693 60.5046C100.611 61.5134 102.944 63 103.819 63C104.606 63 105.16 62.0974 105.831 59.6551C106.531 57.0535 107.697 55.7262 110.089 54.7705C111.926 54.0272 112.567 53.9741 113.501 54.5051C114.113 54.8236 115.571 55.2484 116.708 55.4076C118.137 55.62 119.42 56.2571 120.704 57.319C122.57 58.8587 122.628 58.8587 126.39 58.5402C128.49 58.3809 130.94 57.9561 131.873 57.6907C133.127 57.2659 134.002 57.2659 135.226 57.7438C137.384 58.5402 143.275 58.434 146.133 57.4783C147.387 57.1066 149.224 55.9917 150.274 55.0891C151.324 54.1865 152.345 53.4432 152.578 53.4432C152.782 53.4432 153.657 52.4875 154.503 51.3195C156.311 48.9303 157.652 48.3993 160.772 48.8241C161.91 49.0364 163.397 48.9833 164.097 48.7179C164.768 48.4524 165.322 48.5055 165.322 48.7179C165.322 48.9833 165.497 49.1957 165.701 49.1957C166.109 49.1957 170.221 52.222 170.688 52.8592C171.883 54.452 174.1 55.3015 177.278 55.3015C179.116 55.3015 180.778 55.1422 180.953 54.9298C181.099 54.7174 181.215 53.7618 181.186 52.8061C181.128 51.8504 181.565 48.24 182.119 44.789C182.673 41.2848 183.052 38.3116 182.994 38.0992C182.936 37.9399 182.702 34.4358 182.527 30.3476C182.265 24.8789 182.061 22.5959 181.682 21.5872C180.661 18.9856 179.786 13.9948 179.815 11.0747C179.845 9.58805 179.757 8.31382 179.64 8.31382C179.553 8.31382 179.495 7.35813 179.553 6.19008C179.64 4.438 179.582 4.06634 179.174 4.06634C178.241 4.06634 176.345 5.34058 176.199 6.0308C176.112 6.40245 175.762 6.72101 175.383 6.72101C175.033 6.72101 174.508 7.19885 174.187 7.83598C173.75 8.73856 173.429 8.89784 172.554 8.63237C171.883 8.42 171.067 8.57928 170.483 9.00403C169.404 9.85352 166.576 9.42877 166.226 8.42C166.109 8.04834 165.643 7.67669 165.147 7.46432C164.418 7.19885 164.214 7.35813 163.922 8.52619C163.718 9.42877 163.222 10.0128 162.435 10.4375C161.793 10.7561 161.181 11.234 161.093 11.4463C160.889 12.1365 154.415 11.7118 153.686 11.0216C153.365 10.703 152.724 10.4375 152.228 10.4375C151.761 10.4375 151.324 10.1721 151.266 9.80043C151.178 9.42878 150.42 9.11021 149.283 9.00403C148.262 8.95093 147.358 8.63238 147.241 8.31382C147.125 7.94216 145.871 7.88907 143.421 8.10144C141.438 8.31381 139.542 8.47309 139.222 8.42C137.472 8.31381 134.818 7.6236 134.556 7.25195C134.118 6.61483 132.339 6.98648 132.077 7.78288C131.814 8.57928 129.219 9.42878 128.986 8.73856C128.898 8.52619 128.694 8.42 128.548 8.57928C128.402 8.79165 127.353 9.00403 126.244 9.11021C124.728 9.2164 124.203 9.11021 124.203 8.57928C124.203 7.41123 121.578 6.50864 120.791 7.41122C120.616 7.6236 120.15 7.57051 119.77 7.30504C119.42 7.09267 118.312 6.93338 117.35 6.98648C116.038 7.09266 115.221 6.8272 114.142 5.92461C112.538 4.59727 109.126 4.22562 107.96 5.2344C107.493 5.65915 107.202 5.65915 106.939 5.2344C106.443 4.54419 102.711 4.49109 102.448 5.18131C102.215 5.92461 101.019 6.72101 99.5902 6.98648C98.9486 7.14576 98.1029 7.51741 97.753 7.88906C96.9947 8.57928 95.1575 7.72979 93.8161 6.08389C93.262 5.39368 92.8537 5.2344 92.358 5.55296C92.008 5.81842 91.1331 6.19008 90.4624 6.40245C89.2376 6.72101 89.2084 6.72101 89.2084 5.18131V3.69469L86.9629 4.70347C85.709 5.28749 84.105 5.87152 83.376 6.0308C82.6178 6.19008 81.8304 6.72101 81.5388 7.30504C81.1013 8.15454 80.7222 8.31381 79.5557 8.10144C78.7392 7.99525 77.9227 7.6236 77.7185 7.30504C77.5144 6.98648 76.727 6.66792 75.9396 6.50864C75.0648 6.40245 74.4524 6.0308 74.2774 5.44677C74.1316 4.96893 73.84 4.59728 73.6067 4.59728C73.4025 4.59728 72.9651 4.01325 72.6443 3.26994C72.3235 2.57972 71.507 1.62404 70.8071 1.1993C69.3781 0.296709 69.0865 0.615274 69.0865 3.16376C69.0865 4.06634 68.8824 4.75656 68.5908 4.96893C68.2991 5.1813 68.0075 5.49987 67.92 5.71224C67.6284 6.45555 64.2748 8.73856 64.1873 8.26072C64.1289 7.99525 63.8665 7.78288 63.5749 7.78288C63.3124 7.78288 62.9333 7.51741 62.7292 7.14576C62.4667 6.66792 62.3792 6.66792 62.3792 7.14576C62.3792 7.88907 61.4169 7.99526 60.6878 7.30504C57.5383 4.22562 55.6136 3.69469 54.2138 5.55296C53.3972 6.66792 53.0765 6.77411 50.0436 6.61483C48.2647 6.50864 45.9317 6.72101 44.911 7.03957C43.6862 7.46432 42.7822 7.51741 42.3156 7.19885C41.9073 6.93339 41.3241 6.88029 40.9742 7.03957C39.1953 8.10144 32.4296 8.3669 31.9922 7.35813C31.8172 7.03957 31.4381 6.72101 31.1465 6.72101C30.155 6.72101 28.6385 4.86274 27.7928 2.63282C26.9471 0.349807 26.4222 -0.393505 26.1014 0.190522Z" fill="#FAA916"/>
</svg>
