<?xml version="1.0" encoding="UTF-8"?>
<svg xmlns="http://www.w3.org/2000/svg" version="1.1" viewBox="0 0 191.7 132">
  <defs>
    <style>
      .cls-1 {
        fill: #FFF8F0;
      }
    </style>
  </defs>
  <!-- Generator: Adobe Illustrator 28.7.0, SVG Export Plug-In . SVG Version: 1.2.0 Build 136)  -->
  <g>
    <g id="Calque_1">
      <g id="Calque_1-2" data-name="Calque_1">
        <g>
          <path class="cls-1" d="M15.1,85.1c-2.8,2.5-5.9,1.8-7.5-1.6-.9-1.9-1.3-4-1.4-6.1-.2-4.8.2-9.6,1-14.3.2-1.1,0-2-.7-2.9-3.8-5.4-5.7-11.5-5.4-18.1.6-14.9,11.7-26.5,25.7-28.4,7.6-1,14.6.7,20.9,5.1.9.6,1.3.5,2-.2,4.8-4.9,9.7-9.6,14.4-14.5,3.1-3.2,6.6-3.5,9.8,0,1.7,2,2.3,4.1,1.3,6.3-.4.8-.9,1.4-1.5,2l-15.8,15.8c-.7.7-.8,1.2-.4,2.1,4.6,10.4,3.8,20.3-2.5,29.8-1,1.5-1.4,3-1.1,4.9,1,5.2,1.5,10.5.6,15.8-.5,3.1-1.6,6-3.3,8.7-1,1.6-2.3,2.8-4.4,2.7-.7,0-1.4-.3-1.9-.8-.6-.6-.9-.4-1.2.4-1.4,4.1-2.8,8.3-4.3,12.4-2.9,8.4-5.8,16.8-8.7,25.2,0,.3,0,.9-.5.9s-.4-.6-.5-1c-4.8-14.3-9.5-28.6-14.2-42.9,0-.4-.3-.8-.5-1.2h0ZM52.6,43.1c-.2-8.1-3.5-14.4-10.5-18.5-4.2-2.5-8.7-3.8-13.6-3.1-5.5.8-10.1,3.5-13.7,7.6-4.8,5.4-6,11.8-4.9,18.7,0,.4,0,1,.9.6,2.7-1.2,5.5-1,8.3-.2,2.3.7,4.5,1.6,6.8,2.4,1.7.6,3.4,1,5.1.8,3.8-.6,7.5-1.1,11.4-1.4,2.8-.2,5.5-.2,8,1.2.7.4.9.3,1.1-.4.8-2.5,1.3-5,1.2-7.7h-.1ZM26.4,98.5c.3-.1.5-.2.7-.4,2.7-1.9,5.4-3.7,8.2-5.6.7-.5.5-.7,0-1.1-2.5-1.6-5-3.2-7.5-4.8-.5-.3-.9-.4-1.4,0-2.1,1.5-4.3,2.9-6.4,4.4-.2.2-.6.3-.5.6.4,1.2.4,2.6,1.6,3.4,1.5,1,3.1,2,4.7,3,.2.2.5.3.8.4h-.2ZM43.7,83.1c0-.6-.2-.7-.5-.9-1.5-1-3-2-4.5-3.1-.5-.3-.8-.3-1.3,0-2.7,1.8-5.3,3.6-8,5.4-.6.4-.7.6,0,1.1,2.5,1.6,5.1,3.2,7.6,4.9.5.3.9.3,1.3,0,1.4-1,2.7-1.9,4.1-2.8.2-.2.5-.3.6-.7,0-1.4.2-2.7.7-3.9ZM36.5,107.5c0-.4-.4-.6-.7-.8-2.3-1.5-4.6-2.9-6.9-4.4-1.8-1.1-3.6-1-5.3.3-2.6,2,0,0,0,0-.4.2-.5.5-.3.9,1.1,3.2,2.1,6.3,3.2,9.5.2.7.7.8,1.3.4,2.7-1.6,5.3-3.2,8-4.8.5-.3.7-.8.8-1.3v.2ZM47.3,68.6c0-1.8-.2-3.4-1.2-4.7-1.5-2-4.1-1.9-5.5,0-.4.5-.7,1.1-1,1.7-1.2,2.4-2.2,5-3.3,7.5-.6,1.5-.6,1.4.7,2.4.8.7,1.4.7,2.3,0,2.2-1.6,4.4-3.1,6.6-4.5,1.1-.7,1.7-1.5,1.4-2.6v.2ZM37.7,93.2c-.3.1-.5.2-.6.3-2.7,1.9-5.5,3.8-8.2,5.6-.7.5-.4.7,0,1,2.5,1.6,5,3.1,7.5,4.7.6.4.9.3,1.2-.4,1-2.9,2-5.7,3-8.6,0-.3.3-.6,0-.8-.9-.8-1.9-1.4-2.9-1.9h0ZM36.2,77.5c-.3-.4-.7-.6-1.1-.8-.3-.2-.5,0-.7.3-.4.5-.8,1.1-1.2,1.6-1.3,1.4-2.8,1.5-4.4.5-.6-.4-1.1-.8-1.6-1.4-1.1-1.1-1.4-2.5-1.7-3.9-.2-.9-.5-1-1.2-.5-2,1.4-4,2.7-6,4.1-.6.4-.6.7,0,1.1,2.7,1.7,5.4,3.4,8,5.2.4.3.8.3,1.2,0,2.8-1.9,5.5-3.7,8.3-5.6.2-.1.4-.2.4-.5h0ZM16.7,79.7c-.3,0-.3.2-.4.4,0,.9-.4,1.7,0,2.6.7,2,1.3,4,2,6,.2.8.5.9,1.2.4,1.6-1.2,3.3-2.3,5-3.4.6-.4.7-.7,0-1.1-2.4-1.5-4.8-3.1-7.2-4.6-.2-.1-.4-.2-.5-.3h0ZM16.9,76.1c2.5-1.7,4.7-3.2,7-4.8.5-.3.3-.6,0-1-1.3-2-3.5-2.2-4.9-.3-1.3,1.7-1.8,3.8-2.2,6.1h0ZM46.8,72.8c-2.3,1.6-4.5,3-6.6,4.5-.4.3,0,.5,0,.7,1.2.8,2.4,1.7,3.7,2.5.5.4.8.2,1-.3.3-1,.7-2,1-2.9.4-1.4.9-2.7.9-4.4h0ZM30.2,124.7h.3c.6-1.6,1.1-3.3,1.7-4.9,0-.3,0-.6-.2-.8-1.4-.9-2.9-1.7-4.3-2.6,0,0-.2.1-.2.2.9,2.7,1.8,5.4,2.7,8.1h0ZM35.2,111.2c-2.1,1.2-3.8,2.3-5.6,3.4-.4.2-.6.5,0,.8,1,.6,2,1.2,3,1.7.5.3.7,0,.8-.4.6-1.7,1.2-3.5,1.9-5.5h-.1ZM21.4,97.7c0,.7.2,1.2.4,1.7.6,2,.8,2.1,2.4.7h0c.3-.2.3-.4,0-.6-.9-.6-1.8-1.3-2.9-1.7h0ZM42.6,90s0,0-.2-.1c-.8.6-1.6,1.1-2.5,1.7-.4.3-.4.5,0,.8.3.2.6.3.8.5.5.4.8.3,1-.3.3-.9.6-1.7.9-2.6Z"/>
          <path class="cls-1" d="M73.4,69.4c0,5.2.9,9.7,3.8,13.6,2.6,3.4,6,5.2,10.3,5.2s5.6-.2,8.1-1.6c1.9-1.1,3.2-2.7,4.1-4.7.8-1.7,1.3-3.4,1.6-5.2.2-1,.6-1.3,1.6-1.2,3,.3,6,.4,9,.6,1.5,0,1.6.2,1.4,1.6-1.6,10.2-8.4,17.5-18.5,19.6-8.3,1.7-16,.5-22.8-4.6-5.9-4.5-9.1-10.6-10-18-.6-5.2-.5-10.4,1.1-15.4,3.4-10.2,10.5-16.3,21.2-17.9,7.3-1.1,14.1.5,20.1,5,5.2,3.9,7.9,9.3,8.9,15.6.2,1.3,0,1.4-1.2,1.5-3.1.2-6.3.4-9.4.6-.9,0-1.1-.3-1.2-1.1-.3-2-.9-3.9-1.8-5.7-1.9-4-5.1-5.9-9.4-6.3-4.3-.5-8.1.4-11.3,3.4-2.8,2.6-4.2,6-5,9.7-.4,1.9-.6,3.7-.5,5.2h-.1Z"/>
          <path class="cls-1" d="M122.3,69.6v-25.6c0-1.6,0-1.7,1.7-1.7h33.3q1.6,0,1.6,1.6v5.7c0,1.3-.6,1.9-1.9,1.9h-21.1c-1.1,0-1.7.5-1.7,1.6v9.3c0,1.1.6,1.6,1.7,1.6h17.8c1.1,0,1.5.3,1.5,1.4v6.2c0,1.1-.4,1.4-1.4,1.4h-18q-1.5,0-1.5,1.5v11.8c0,1.1.3,1.4,1.4,1.4h21.7q1.7,0,1.7,1.7v5.8q0,1.7-1.6,1.7h-33.2c-1.6,0-1.7,0-1.7-1.7v-25.6h-.3Z"/>
          <path class="cls-1" d="M117.3,114.8c-.5,2.5-.9,5.1-1.4,7.6-.4,2.3-.8,4.5-1.2,6.8-.1.8-.5,1.2-1.4,1.2h-3.9c-.8,0-1.1-.3-1-1.1,1.1-5.9,2.1-11.8,3.1-17.7.5-2.6,1-5.2,1.4-7.9.1-.9.5-1.3,1.4-1.2h5.2c.9,0,1.3.3,1.5,1.2.7,4.3,1.5,8.7,2.3,13,.3,1.7.6,3.5.9,5.2,0,.2,0,.4.4.6.7-1.3,1.4-2.6,2.1-3.9,2.7-5,5.4-10.1,8-15.1.4-.7.8-1.1,1.6-1h5.4c.8,0,1.2.2,1,1.1-1.5,8.6-3.1,17.2-4.6,25.8-.1.8-.5,1.1-1.3,1h-3.8c-1,0-1.3-.3-1.1-1.3.8-4.4,1.6-8.7,2.3-13.1,0-.4.2-.7,0-1.2-1.4,2.7-2.8,5.3-4.2,7.9-1.2,2.3-2.4,4.5-3.6,6.8-.4.7-.8.9-1.6.9h-3.6c-1.1,0-1.4-.4-1.6-1.3-.7-4.3-1.5-8.6-2.3-12.9,0-.4-.2-.9-.3-1.3h-.2.5Z"/>
          <path class="cls-1" d="M89.4,117.2c2.9.7,3.7,1.6,3.5,4.4-.2,2.6-.5,5.2-.8,7.7,0,.8-.4,1-1.1,1h-4.1c-.8,0-1-.3-.9-1.1.3-2.3.5-4.6.8-6.9.3-2.4-.4-3.3-2.8-3.4h-4c-.7,0-1.1.3-1.2,1-.5,3-1.1,6-1.6,9.1-.2,1-.6,1.4-1.6,1.3h-3.8c-.8,0-1-.3-.9-1.1,1.3-7,2.5-14.1,3.8-21.1.3-1.6.5-3.1.8-4.7.1-.6.2-1.1,1-1.1,4,.1,7.9-.3,11.9.2,2.1.3,4,.9,5.5,2.6.5.6.9,1.2,1.1,1.9,1.1,3.7-.9,8-4.4,9.5-.4.2-.8.2-1.2.6h0ZM84.2,107.2h-2.1c-.9,0-1.2.3-1.3,1.1-.3,1.7-.6,3.4-.9,5-.1.7.2.9.8.9,1.5,0,3,0,4.5-.1,2.7-.3,3.7-1.9,3.8-4.5,0-1.1-.6-1.8-1.6-2.1-1.1-.3-2.1-.2-3.2-.3Z"/>
          <path class="cls-1" d="M167.6,121.8c0-1.9.9-2.9,2.7-3,.8,0,1.7-.1,2.5-.2.8,0,1.2.1,1,1.1-.1.6-.1,1.3-.1,1.9,0,3,1.7,4.6,4.7,4.6s4.6-1.4,5.3-3.8c.5-1.7,0-3-1.7-3.8-1.3-.6-2.7-.9-4.1-1.2-1.3-.3-2.6-.6-3.8-1.2-3.9-2-4.9-6.3-2.4-9.9,2.1-3,5.2-4.2,8.7-4.5,2-.2,3.9,0,5.8.6,3.2,1.1,5,4.1,4.3,7.5-.1.7-.4,1-1.1,1-1.4,0-2.8.2-4.2.3-.6,0-1-.1-.9-.8.1-1.4-.1-2.7-1.6-3.4-1.7-.8-3.4-.7-5,.4-1.8,1.3-1.5,3.7.5,4.7.8.4,1.7.6,2.7.8,1.4.3,2.8.7,4.2,1.2,5.1,1.9,6.1,5.6,4.1,10.3-1.7,4-5.2,5.7-9.3,6.4-1.8.3-3.6.3-5.4,0-4.6-.9-6.9-3.9-6.8-8.9h0Z"/>
          <path class="cls-1" d="M48.2,119.2c0,.4,0,1.1.2,1.8.5,2.4,1.8,4.3,4.3,4.7,3,.5,5.8,0,7.7-2.8.6-.8,1.1-1.8,1.4-2.8.2-.6.6-.9,1.2-.8,1.4.1,2.7.2,4.1.3.8,0,1.1.4.7,1.2-2.1,5.8-6.3,9-12.3,9.9-1.8.3-3.6.3-5.4-.2-5.5-1.4-8.6-5.6-8.2-11.7.3-5.2,2.1-9.8,6.2-13.2,4.2-3.5,9-4.9,14.4-3.3,4.5,1.3,7.2,5.4,6.9,10,0,.6-.3,1-.9,1-1.4,0-2.9.2-4.3.3-.8,0-1.1-.3-1.1-1h0c-.3-4.7-3.4-6.7-7.8-5.3-1.9.6-3.4,1.8-4.5,3.4-1.7,2.4-2.5,5.2-2.5,8.4h0Z"/>
          <path class="cls-1" d="M152.8,130.4h-8.1c-1,0-1.2-.3-1.1-1.2,1.2-6.8,2.4-13.7,3.7-20.6.3-1.7.6-3.5.9-5.2.1-.7.4-.9,1.1-.9h16.8c.8,0,1,.3.9,1.1-.2.9-.4,1.7-.5,2.6,0,.9-.5,1.1-1.3,1.1h-10.2c-1,0-1.4.3-1.5,1.3-.1,1.3-.4,2.6-.7,3.9-.2,1,.1,1.1,1,1.1h8.2c1,0,1.3.3,1,1.2v.2c-.4,2.2-1.8,3.3-4.1,3.3h-6.1c-.7,0-1.1.3-1.2,1-.3,1.8-.6,3.6-.9,5.4-.2.8.1,1,.8,1h10.3c1,0,1.3.3,1.1,1.2-.1.6-.3,1.2-.3,1.7-.3,2.1-.3,1.8-2.3,1.8h-7.5Z"/>
          <path class="cls-1" d="M100,130.4h-1.7q-1.4,0-1.2-1.4c.5-2.7,1-5.5,1.5-8.2,1-5.8,2.1-11.5,3.1-17.3.2-.9.6-1.2,1.4-1.1h3.7c1.1,0,1.3.3,1.1,1.3-.6,3.5-1.3,7-1.9,10.5-.8,4.8-1.7,9.5-2.5,14.3q-.3,1.9-2.2,1.9h-1.3Z"/>
        </g>
      </g>
    </g>
  </g>
</svg>